<?xml version="1.0" encoding="iso-8859-1"?>
<!-- Uploaded to: SVG Repo, www.svgrepo.com, Generator: SVG Repo Mixer Tools -->
<svg version="1.1" id="Layer_1" xmlns="http://www.w3.org/2000/svg" xmlns:xlink="http://www.w3.org/1999/xlink" 
	 viewBox="0 0 512 512" xml:space="preserve">
<rect x="94.316" style="fill:#93C7EF;" width="323.368" height="512"/>
<rect x="256" style="fill:#78B9EB;" width="161.684" height="512"/>
<rect x="94.316" style="fill:#006DF0;" width="323.368" height="404.211"/>
<rect x="256" style="fill:#0052B4;" width="161.684" height="404.211"/>
<circle style="fill:#003778;" cx="256" cy="67.368" r="20.211"/>
<path style="fill:#FFFFFF;" d="M330.105,249.263c0-6.26-0.787-12.337-2.255-18.146l19.936-11.509l-20.211-35.005l-19.983,11.538
	c-8.684-8.437-19.421-14.76-31.382-18.157v-23.036H235.79v23.036c-11.962,3.397-22.698,9.72-31.382,18.157l-19.983-11.538
	l-20.211,35.005l19.936,11.509c-1.469,5.81-2.256,11.887-2.256,18.146s0.787,12.337,2.255,18.146l-19.936,11.509l20.211,35.005
	l19.983-11.538c8.684,8.437,19.42,14.76,31.382,18.157v23.036h40.421v-23.036c11.961-3.397,22.698-9.72,31.382-18.157l19.983,11.538
	l20.211-35.005L327.85,267.41C329.318,261.6,330.105,255.523,330.105,249.263z M256,282.947c-18.573,0-33.684-15.111-33.684-33.684
	s15.111-33.684,33.684-33.684s33.684,15.111,33.684,33.684S274.573,282.947,256,282.947z"/>
</svg>