<?xml version="1.0" encoding="iso-8859-1"?>
<!-- Uploaded to: SVG Repo, www.svgrepo.com, Generator: SVG Repo Mixer Tools -->
<!DOCTYPE svg PUBLIC "-//W3C//DTD SVG 1.1//EN" "http://www.w3.org/Graphics/SVG/1.1/DTD/svg11.dtd">
<svg fill="#000000" version="1.1" id="Capa_1" xmlns="http://www.w3.org/2000/svg" xmlns:xlink="http://www.w3.org/1999/xlink" 
	 width="800px" height="800px" viewBox="0 0 426.804 426.803"
	 xml:space="preserve">
<g>
	<g>
		<g>
			<path d="M425.314,109.025L377.021,29.18c-1.867-3.087-5.214-4.974-8.822-4.974c-3.607,0-6.953,1.886-8.82,4.974l-48.295,79.846
				c-1.926,3.184-1.986,7.158-0.158,10.399c1.826,3.242,5.261,5.246,8.98,5.246h16.188v75.504c0,5.694,4.613,10.31,10.31,10.31
				h43.59c5.695,0,10.311-4.616,10.311-10.31v-75.503h16.189c3.721,0,7.152-2.004,8.979-5.246
				C427.303,116.184,427.242,112.209,425.314,109.025z"/>
			<path d="M178.274,28.771c-54.54,0-84.725,28.262-84.174,82.721c0.8,74.585,32.494,119.833,84.174,119.042
				c0,0,84.13,3.412,84.13-119.042C262.404,57.032,233.982,28.771,178.274,28.771z"/>
			<path d="M327.084,287.145l-84.064-33.519l-19.686-16.589c-5.199-4.395-12.88-4.069-17.701,0.726l-27.368,27.218l-27.449-27.226
				c-4.825-4.787-12.494-5.096-17.688-0.717l-19.688,16.589l-84.066,33.521C2.304,297.93,2.324,393.797,0,402.598h356.498
				C354.178,393.819,354.166,297.917,327.084,287.145z"/>
		</g>
	</g>
</g>
</svg>