<?xml version="1.0" encoding="iso-8859-1"?>
<!-- Uploaded to: SVG Repo, www.svgrepo.com, Generator: SVG Repo Mixer Tools -->
<svg version="1.1" id="Layer_1" xmlns="http://www.w3.org/2000/svg" xmlns:xlink="http://www.w3.org/1999/xlink" 
	 viewBox="0 0 512 512" xml:space="preserve">
<path d="M473.56,397.58V103.228c0-7.04-5.76-12.8-12.8-12.8H51.32c-7.04,0-12.8,5.76-12.8,12.8V397.58
	C38.528,397.58,474.632,397.58,473.56,397.58z"/>
<rect x="54.52" y="106.428" style="fill:#E21B1B;" width="403.04" height="275.152"/>
<rect y="397.58" style="fill:#D8D8D8;" width="511.912" height="8"/>
<polygon style="fill:#AAAAAA;" points="486.408,421.572 25.688,421.572 0.088,405.58 512,405.58 "/>
<g style="opacity:0.7;">
	<path style="fill:#FFFFFF;" d="M298.992,397.58H212.92c0.816,4.488,4.824,8,9.832,8h66.4
		C294.168,405.58,298.176,402.068,298.992,397.58z"/>
</g>
<g>
	<path style="fill:#FFFFFF;" d="M134.488,283.996c0-4.512,0.616-9.432,1.856-14.744h15.048v10.432c0,6.056,0.872,10.408,2.64,13.064
		s4.656,3.984,8.672,3.984c4.072,0,6.952-1.464,8.64-4.392s2.528-7.152,2.528-12.656v-24.576c0-3.168-0.272-5.744-0.824-7.704
		s-1.288-3.504-2.232-4.616c-0.936-1.12-2.048-1.872-3.312-2.272c-1.264-0.4-2.64-0.592-4.136-0.592
		c-2.784,0-5.168,0.784-7.152,2.344s-3.624,3.44-4.912,5.624h-14.216v-64.936h54.656v17.048h-38.576v31.424
		c2.088-2.384,4.704-4.24,7.856-5.584c3.152-1.336,6.448-2.008,9.864-2.008c7.888,0,13.68,2.656,17.352,7.968
		c3.672,5.312,5.504,13.136,5.504,23.456v21.592c0,6.552-0.84,12.032-2.528,16.424s-3.92,7.92-6.704,10.576s-5.992,4.552-9.64,5.696
		s-7.408,1.712-11.28,1.712c-4.72,0-8.888-0.632-12.504-1.896c-3.624-1.264-6.672-3.096-9.128-5.48
		c-2.464-2.384-4.32-5.248-5.584-8.6C135.12,291.94,134.488,288.172,134.488,283.996z"/>
	<path style="fill:#FFFFFF;" d="M209.624,219.284c0-5.552,0.504-10.36,1.52-14.408s2.36-7.448,4.024-10.2
		c1.664-2.752,3.584-4.976,5.776-6.664c2.176-1.688,4.432-2.992,6.736-3.904c2.312-0.92,4.616-1.528,6.928-1.832
		c2.304-0.296,4.432-0.448,6.368-0.448c1.832,0,3.88,0.144,6.144,0.408c2.256,0.272,4.536,0.848,6.848,1.72
		c2.304,0.864,4.536,2.136,6.704,3.8c2.16,1.664,4.072,3.88,5.736,6.664s3,6.2,4.016,10.272c1.024,4.072,1.528,8.936,1.528,14.592
		v53.768c0,5.56-0.504,10.368-1.528,14.416c-1.016,4.048-2.368,7.488-4.056,10.312s-3.624,5.128-5.816,6.88
		c-2.176,1.768-4.416,3.136-6.696,4.104c-2.288,0.968-4.552,1.624-6.824,1.968c-2.256,0.352-4.28,0.52-6.064,0.52
		c-1.992,0-4.152-0.168-6.488-0.52c-2.328-0.344-4.664-1-7-1.968c-2.328-0.968-4.576-2.32-6.736-4.064
		c-2.168-1.736-4.064-4.024-5.696-6.848c-1.64-2.832-2.96-6.28-3.952-10.352s-1.488-8.88-1.488-14.448v-53.768H209.624z
		 M229.36,281.172c0,5.264,0.952,9.088,2.864,11.472c1.904,2.384,4.832,3.576,8.752,3.576c3.824,0,6.672-1.192,8.56-3.576
		c1.88-2.384,2.832-6.2,2.832-11.472v-68.88c0-5.552-0.944-9.6-2.832-12.136c-1.888-2.528-4.744-3.8-8.56-3.8
		c-3.92,0-6.84,1.264-8.752,3.8c-1.912,2.528-2.864,6.576-2.864,12.136V281.172z"/>
	<path style="fill:#FFFFFF;" d="M306.992,237.756c-2.168,0-4.328-0.304-6.504-0.912c-2.176-0.6-4.152-1.792-5.912-3.544
		c-1.76-1.768-3.192-4.264-4.288-7.504c-1.104-3.232-1.648-7.496-1.648-12.76v-6.08c0-3.456,0.264-6.432,0.8-8.952
		s1.256-4.672,2.184-6.456s2-3.216,3.208-4.32c1.208-1.096,2.496-1.944,3.864-2.552c1.36-0.608,2.752-1.024,4.168-1.248
		s2.816-0.344,4.176-0.344c1.288,0,2.632,0.112,4.04,0.312c1.4,0.208,2.776,0.616,4.12,1.224c1.344,0.6,2.624,1.448,3.832,2.52
		c1.208,1.088,2.272,2.512,3.176,4.296c0.912,1.784,1.632,3.936,2.168,6.48c0.536,2.544,0.8,5.552,0.8,9.04v6.08
		c0,5.192-0.584,9.408-1.768,12.648c-1.168,3.24-2.664,5.752-4.464,7.528s-3.776,2.984-5.904,3.608
		C310.904,237.444,308.888,237.756,306.992,237.756z M307.104,228.716c2.392,0,4.056-1.032,5.008-3.096
		c0.944-2.072,1.416-5.28,1.416-9.64v-11.024c0-4.392-0.472-7.632-1.416-9.72c-0.952-2.088-2.616-3.128-5.008-3.128
		c-2.496,0-4.248,1.04-5.256,3.128c-1,2.088-1.504,5.328-1.504,9.72v11.024c0,4.36,0.496,7.568,1.504,9.64
		C302.856,227.684,304.608,228.716,307.104,228.716z M341.432,184.276h10.288l-26.088,98.16h-10.344L341.432,184.276z
		 M341.552,252.476c0-5.184,0.576-9.352,1.736-12.48s2.632-5.528,4.432-7.216c1.808-1.688,3.784-2.808,5.944-3.352
		s4.24-0.824,6.248-0.824c1.288,0,2.632,0.104,4.032,0.312c1.408,0.2,2.784,0.608,4.128,1.216s2.624,1.448,3.832,2.528
		c1.208,1.08,2.272,2.504,3.176,4.288c0.912,1.784,1.632,3.936,2.168,6.48c0.536,2.544,0.8,5.552,0.8,9.04v6.08
		c0,3.496-0.28,6.52-0.832,9.096c-0.544,2.576-1.288,4.784-2.216,6.592c-0.928,1.824-2,3.32-3.208,4.496s-2.496,2.104-3.832,2.792
		c-1.344,0.68-2.72,1.144-4.12,1.392c-1.408,0.24-2.728,0.368-3.976,0.368c-1.448,0-2.888-0.128-4.352-0.368
		c-1.464-0.248-2.856-0.696-4.2-1.336c-1.352-0.648-2.616-1.552-3.816-2.728c-1.192-1.176-2.224-2.672-3.096-4.496
		s-1.56-4.024-2.08-6.624c-0.504-2.592-0.768-5.648-0.768-9.176L341.552,252.476L341.552,252.476z M353.2,261.516
		c0,4.36,0.504,7.568,1.504,9.632c1.008,2.064,2.76,3.096,5.256,3.096c2.392,0,4.056-1.032,5-3.096s1.424-5.272,1.424-9.632v-11.032
		c0-4.392-0.48-7.632-1.424-9.72c-0.944-2.08-2.608-3.128-5-3.128c-2.496,0-4.248,1.048-5.256,3.128
		c-1,2.088-1.504,5.328-1.504,9.72V261.516z"/>
</g>
</svg>